<?xml version="1.0" encoding="utf-8"?>
<!-- Generator: Adobe Illustrator 18.1.0, SVG Export Plug-In . SVG Version: 6.00 Build 0)  -->
<svg version="1.1" id="socio-bronx" xmlns="http://www.w3.org/2000/svg" xmlns:xlink="http://www.w3.org/1999/xlink" x="0px" y="0px"
	 viewBox="0 0 588 588.3" enable-background="new 0 0 588 588.3" xml:space="preserve">
<path d="M294.6,2.5C133.4,2.5,2.5,133.3,2.5,294.9s131,291.9,292.1,291.9S586.6,456,586.6,294.8S456.3,2.5,294.6,2.5z M443.8,264.6
	L354.3,322l40.8,102c1,2.3,1.4,3.7,1.4,5.1c0,1.4-1,3.2-2.3,5.1c-1.4,1.8-3.2,2.3-5.1,2.3c-2.3,0-5.5-1.4-8.7-4.6l-81.2-69.8
	l-80.8,69.8c-3.2,2.8-6,4.6-8.7,4.6c-1.8,0-3.7-1-5.5-2.3c-1.4-1.8-2.3-3.2-2.3-5.1c0-1,0.4-2.8,1.4-4.6l40.4-102l-89.1-57.8
	c-4.6-3.2-6.9-6-6.9-9.1c0-6,3.7-9.1,11.1-9.1c1,0,2.3,0,4.1,0l103.4,9.1l23.4-101c1.4-5.1,2.3-8.7,3.7-10.1c1.4-1.4,3.2-2.3,6-2.3
	c2.8,0,4.6,1,5.5,2.3c1.4,1.4,2.3,5.1,3.7,10.1l23.4,101l103.4-9.1c1.8,0,3.2,0,4.6,0c7.3,0,11.1,3.2,11.1,9.1
	C451.3,258.6,448.9,261.4,443.8,264.6z"/>
</svg>
