<?xml version="1.0" encoding="utf-8"?>
<!-- Generator: Adobe Illustrator 18.1.0, SVG Export Plug-In . SVG Version: 6.00 Build 0)  -->
<svg version="1.1" id="facebook-icon" xmlns="http://www.w3.org/2000/svg" xmlns:xlink="http://www.w3.org/1999/xlink" x="0px" y="0px"
	 viewBox="0 0 127.8 128.2" enable-background="new 0 0 127.8 128.2" xml:space="preserve">
<path d="M63.9,0.6C28.8,0.6,0.3,29.1,0.3,64.2s28.5,63.6,63.6,63.6s63.6-28.5,63.6-63.6S99.1,0.6,63.9,0.6z M79.6,52.2l-0.8,10.6
	H67.9v36.9H54.1V62.8h-7.3V52.2h7.3v-3.3v-3.3v-0.5c0-3.1,0.1-8,2.4-11c2.4-3.2,5.7-5.3,11.4-5.3c9.3,0,13.2,1.3,13.2,1.3l-1.8,10.9
	c0,0-3.1-0.9-5.9-0.9c-2.9,0-5.4,1-5.4,3.9v1.2v3.8v3.3H79.6z"/>
</svg>
