<?xml version="1.0" encoding="utf-8"?>
<!-- Generator: Adobe Illustrator 18.1.0, SVG Export Plug-In . SVG Version: 6.00 Build 0)  -->
<svg version="1.1" id="socio-insta" xmlns="http://www.w3.org/2000/svg" xmlns:xlink="http://www.w3.org/1999/xlink" x="0px" y="0px"
	 viewBox="124 3.8 590.5 591.5" enable-background="new 124 3.8 590.5 591.5" xml:space="preserve">
<g>
	<path d="M420,5.1C257.8,5.1,126.1,136.8,126.1,299S257.8,593,420,593S714,461.2,714,299S582.7,5.1,420,5.1z M566.1,377.1
		c0,34.7-27.7,62.4-62.4,62.4H336.4c-34.7,0-62.4-27.7-62.4-62.4V257h83.2c-6.5,10.6-10.2,23.1-10.2,36.5
		c0,40.2,32.4,72.6,72.6,72.6s72.6-32.4,72.6-72.6c0-13.4-3.7-25.9-10.2-36.5h83.7v120.2H566.1z M383.5,293.9
		c0-19.9,16.2-36.5,36.5-36.5c19.9,0,36.5,16.2,36.5,36.5c0,19.9-16.2,36.5-36.5,36.5C400.1,330.5,383.5,314.3,383.5,293.9z
		 M566.1,238.5h-99.4c-12.5-10.6-28.7-17.6-46.7-17.6c-18,0-34.2,6.5-46.7,17.6H274v-27.7c0-34.7,27.7-62.4,62.4-62.4h167.3
		c34.7,0,62.4,27.7,62.4,62.4V238.5z"/>
	<rect x="492.6" y="184.4" width="18.5" height="18"/>
</g>
</svg>
