<?xml version="1.0" encoding="utf-8"?>
<!-- Generator: Adobe Illustrator 18.1.0, SVG Export Plug-In . SVG Version: 6.00 Build 0)  -->
<svg version="1.1" id="Calque_1" xmlns="http://www.w3.org/2000/svg" xmlns:xlink="http://www.w3.org/1999/xlink" x="0px" y="0px"
	 viewBox="0 0 147.5 27.8" enable-background="new 0 0 147.5 27.8" xml:space="preserve">
<g>
	<path d="M28.6,11.4l-8.7,6.3L23.3,28l-8.7-6.3L5.8,28l3.3-10.3l-8.7-6.3h10.7l3.3-10.2l3.3,10.2H28.6z"/>
</g>
<g>
	<path d="M43,25v2.6h-5.7V0.3H43v10.1c1.4-1.9,3.3-3.3,6.3-3.3c4.7,0,9.1,3.7,9.1,10.4v0.1c0,6.7-4.4,10.4-9.1,10.4
		C46.2,28,44.3,26.6,43,25z M52.7,17.6L52.7,17.6c0-3.4-2.2-5.6-4.9-5.6c-2.7,0-4.9,2.2-4.9,5.5v0.1c0,3.3,2.2,5.5,4.9,5.5
		C50.4,23.1,52.7,21,52.7,17.6z"/>
	<path d="M63.3,7.5H69v4c1.2-2.8,3-4.6,6.4-4.4v6h-0.3c-3.8,0-6.1,2.3-6.1,7.1v7.4h-5.7V7.5z"/>
	<path d="M78.1,17.7L78.1,17.7c0-5.8,4.6-10.5,10.9-10.5c6.2,0,10.8,4.6,10.8,10.4v0.1c0,5.8-4.6,10.4-10.9,10.4
		C82.7,28,78.1,23.4,78.1,17.7z M94.2,17.7L94.2,17.7c0-3-2.1-5.6-5.3-5.6c-3.3,0-5.2,2.5-5.2,5.5v0.1c0,3,2.1,5.5,5.3,5.5
		C92.3,23.1,94.2,20.6,94.2,17.7z"/>
	<path d="M104.6,7.5h5.7v2.8c1.3-1.7,3-3.2,5.9-3.2c4.3,0,6.8,2.8,6.8,7.4v13h-5.7V16.4c0-2.7-1.3-4.1-3.4-4.1s-3.6,1.4-3.6,4.1
		v11.2h-5.7V7.5z"/>
	<path d="M134,17.4l-6.8-9.9h6.1l3.7,5.8l3.8-5.8h6l-6.8,9.8l7.1,10.3H141l-4-6.3l-4,6.3h-6L134,17.4z"/>
</g>
</svg>
