<?xml version="1.0" encoding="utf-8"?>
<!-- Generator: Adobe Illustrator 18.1.0, SVG Export Plug-In . SVG Version: 6.00 Build 0)  -->
<svg version="1.1" id="Calque_1" xmlns="http://www.w3.org/2000/svg" xmlns:xlink="http://www.w3.org/1999/xlink" x="0px" y="0px"
	 viewBox="0 0 77 75" enable-background="new 0 0 77 75" xml:space="preserve">
<g>
	<g>
		<path fill="#FFFFFF" d="M38.4,17.1l4.1,12.5l1.1,3.5h3.6h13l-10.6,7.7l-2.9,2.1l1.1,3.5l4.1,12.5l-10.6-7.7L38.4,49l-2.9,2.1
			l-10.7,7.7l4.1-12.5l1.1-3.5l-2.9-2.1L16.5,33h13h3.6l1.1-3.4L38.4,17.1 M38.4,1l-8.8,27H1.2l23,16.7l-8.8,27.2l23.1-16.8
			l23.1,16.8l-8.8-27.2l23-16.7H47.2L38.4,1L38.4,1z"/>
	</g>
</g>
</svg>
