<?xml version="1.0" encoding="utf-8"?>
<!-- Generator: Adobe Illustrator 18.1.0, SVG Export Plug-In . SVG Version: 6.00 Build 0)  -->
<svg version="1.1" id="socio-vimeo" xmlns="http://www.w3.org/2000/svg" xmlns:xlink="http://www.w3.org/1999/xlink" x="0px" y="0px"
	 viewBox="0 0 128 128.2" enable-background="new 0 0 128 128.2" xml:space="preserve">
<path d="M64.1,0.6C28.9,0.6,0.4,29.1,0.4,64.2s28.5,63.6,63.6,63.6s63.6-28.5,63.6-63.6S99.2,0.6,64.1,0.6z M93.4,48.4
	c-1,4.6-2.4,9-4.1,13.4c-1.9,4.9-4.7,9.3-8,13.4c-2,2.6-4.2,5-6.5,7.3c-2.6,2.5-5.3,4.7-8.5,6.3c-1.5,0.8-3,1.3-4.7,1.5
	c-2,0.2-3.7-0.4-5.2-1.6c-1.5-1.2-2.5-2.8-3.3-4.5c-1.4-3-2.3-6.3-3-9.6c-0.9-3.9-1.7-7.8-2.6-11.7c-0.5-2-1.1-4-2-5.9
	c-0.6-1.2-1.2-2.3-2.1-3.3c-0.8-0.9-1.8-1-2.9-0.5c-0.7,0.3-1.4,0.8-2,1.3c-0.3,0.2-0.6,0.4-0.9,0.6c-0.8,0.4-1.3,0.3-1.9-0.4
	c-0.2-0.2-0.4-0.5-0.6-0.7c-0.7-0.9-0.6-1.8-0.2-2.7c0.5-1,1.1-1.8,1.8-2.5c2.8-2.7,5.7-5.2,8.9-7.4c1.7-1.1,3.5-2,5.5-2.4
	c0.5-0.1,1.1-0.1,1.7-0.2c1.9,0,3.5,0.6,4.8,2c0.8,0.9,1.3,1.9,1.8,3c0.6,1.5,0.9,3.2,1.2,4.8c0.2,1.9,0.4,3.9,0.6,5.8
	c0.2,2.2,0.4,4.5,0.7,6.7c0.3,2.2,0.8,4.5,1.8,6.5c0.7,1.4,1.6,2.6,3,3.5c0.3,0.2,0.4,0.2,0.7,0c2.7-2.3,5.2-4.9,6.9-8.1
	c1.2-2.1,1.9-4.4,2-6.9c0-0.9,0-1.9-0.1-2.8c-0.1-0.8-0.7-1.4-1.4-1.7c-0.8-0.3-1.7-0.5-2.6-0.3c-1.2,0.1-2.3,0.3-3.4,0.5
	c-0.4,0.1-0.4,0-0.4-0.5c0.1-1.5,0.5-2.9,1.2-4.2c1.6-2.9,4-5,6.8-6.7c1.8-1,3.7-1.7,5.8-2.1c2.3-0.4,4.5-0.3,6.6,0.7
	c2.5,1.1,3.9,3.2,4.6,5.8c0.2,0.6,0.3,1.1,0.4,1.7C93.7,47.2,93.6,47.8,93.4,48.4z"/>
</svg>
